<svg xmlns="http://www.w3.org/2000/svg" viewBox="21.913 0 175.076 139.058" width="175.076" height="139.058">
  <path d="M27.2026 106.454C27.3027 107.912 26.2006 109.177 24.7419 109.276C23.2824 109.376 22.0189 108.275 21.9189 106.815C21.8189 105.356 22.9209 104.093 24.3796 103.993C25.8383 103.893 27.1026 104.994 27.2026 106.454Z" fill="white"/>
  <path d="M161.049 52.3431C152.313 41.0471 154.529 33.7052 158.278 29.359C163.014 23.8703 170.449 18.0945 179.576 20.5963C192.583 24.1608 199.62 36.9421 193.209 48.7173C189.379 55.7534 183.704 59.1025 178.726 60.6709C173.134 62.4321 167.523 60.7144 161.049 52.3431Z" fill="#5F5F82"/>
  <path d="M158.069 29.6045C158.067 29.6029 158.063 29.6005 158.06 29.598C158.127 29.5174 158.195 29.4375 158.263 29.3592C158.543 29.0333 158.835 28.7049 159.138 28.3749C159.142 28.3765 159.147 28.3782 159.151 28.379C158.851 28.7057 158.559 29.0333 158.278 29.3592C158.235 29.4092 158.192 29.4593 158.15 29.5093C158.123 29.5416 158.096 29.573 158.069 29.6045Z" fill="#63CC89"/>
  <path d="M178.75 60.6562C176.806 53.5838 173.682 46.8624 169.248 40.9114C166.226 36.8379 162.636 33.2049 158.66 30.0656C159.149 29.6195 159.656 29.183 160.179 28.7618C170.831 33.1589 174.685 48.4235 181.36 50.9956C182.93 51.6007 184.368 51.8557 185.678 51.8557C189.161 51.8557 191.735 50.0533 193.445 48.2436C193.364 48.4026 193.279 48.5575 193.195 48.7156C189.373 55.7315 183.723 59.0806 178.75 60.6562ZM158.15 29.5089C158.192 29.4589 158.235 29.4089 158.278 29.3589C158.559 29.0329 158.851 28.7054 159.151 28.3786C159.152 28.3794 159.151 28.3786 159.152 28.3794C158.806 28.7554 158.471 29.133 158.15 29.5089Z" fill="#4C4C7F"/>
  <path d="M194.392 46.1436C195.407 36.3426 188.522 27.2644 177.682 24.2906C176.1 23.8565 174.567 23.6597 173.087 23.6597C168.125 23.6597 163.763 25.8703 160.179 28.7619C159.843 28.6231 159.501 28.4956 159.152 28.3794C163.07 24.1204 168.574 19.996 175.196 19.996C176.607 19.996 178.07 20.1832 179.578 20.5963C191.64 23.9025 198.57 35.1396 194.392 46.1436Z" fill="#8F8FA8"/>
  <path d="M158.07 29.605C158.07 29.605 158.07 29.605 158.069 29.6042C158.095 29.5727 158.123 29.5413 158.15 29.509C158.124 29.5413 158.096 29.5727 158.07 29.605Z" fill="#92DBAD"/>
  <path d="M158.66 30.0654C158.464 29.9105 158.268 29.7572 158.07 29.6047C158.096 29.5725 158.124 29.541 158.151 29.5087C158.472 29.1328 158.806 28.7552 159.152 28.3792C159.501 28.4954 159.843 28.6229 160.179 28.7616C159.656 29.1828 159.149 29.6193 158.66 30.0654Z" fill="#8282A6"/>
  <path d="M153.781 34.2433C156.906 27.2701 163.821 20.6778 171.42 18.9343C175.49 17.9944 179.765 18.7648 183.539 20.4478C191.059 23.6532 197.026 31.0653 196.987 39.4714C197.073 45.6837 193.904 51.4733 189.62 55.7792C185.278 60.0423 179.369 62.5426 173.386 63.1937C171.57 63.3478 171.267 60.7112 173.071 60.4514C178.521 59.8487 183.765 57.6421 187.689 53.8066C194.4 47.1465 196.768 37.5988 190.808 29.6163C187.62 25.3556 182.474 22.4697 177.248 21.6169C171.839 20.8327 166.754 23.3055 162.676 26.8813C159.855 29.363 157.506 32.2166 154.942 34.9904C154.43 35.5745 153.46 34.9557 153.781 34.2433Z" fill="#000072"/>
  <path d="M76.8016 39.9766C88.4155 31.6674 88.4034 23.9987 86.0612 18.7594C83.1027 12.1404 77.6415 4.47178 68.1801 4.24506C54.6969 3.92073 44.2835 14.1405 47.0404 27.2615C48.687 35.1019 53.1599 39.9403 57.4779 42.873C62.3276 46.1672 68.1946 46.1341 76.8016 39.9766Z" fill="#686779"/>
  <path d="M76.8023 39.978C68.1945 46.1347 62.3259 46.1678 57.4794 42.8752C53.1582 39.9393 48.6877 35.1025 47.0394 27.2621C47.0039 27.0862 46.9668 26.9135 46.9345 26.7376L46.9321 26.7304C44.5666 13.8659 54.8791 3.92376 68.1816 4.24406C77.079 4.45948 82.437 11.2519 85.5052 17.5668C85.7005 17.9693 85.886 18.3679 86.0603 18.7608C88.404 23.9978 88.4161 31.6672 76.8023 39.978Z" fill="#5F5F82"/>
  <path d="M57.6053 42.959C57.5633 42.9316 57.5214 42.9033 57.4794 42.8751C53.1582 39.9391 48.6877 35.1024 47.0395 27.2619C47.004 27.086 46.9668 26.9134 46.9346 26.7375C48.3804 29.6121 51.2098 32.8893 56.6299 32.8893C56.9817 32.8893 57.3447 32.8756 57.7191 32.8466C64.8552 32.3012 72.9361 18.7776 84.4104 17.636C84.8041 18.212 85.1777 18.7977 85.5295 19.3883C73.5743 24.0169 64.1727 32.5012 57.6053 42.959ZM86.0305 18.6921C85.8627 18.3193 85.6876 17.9442 85.5044 17.5666C85.5053 17.5666 85.5044 17.5666 85.5052 17.5666C85.6892 17.9458 85.8643 18.3209 86.0305 18.6921Z" fill="#4C4C7F"/>
  <path d="M86.2202 19.126C86.1944 19.0647 86.1677 19.0017 86.1411 18.9404C86.1685 19.0025 86.1952 19.0639 86.2226 19.126H86.2202Z" fill="#A4FFB1"/>
  <path d="M86.2196 19.127C86.1679 19.0035 86.1155 18.8809 86.0606 18.7607C86.0509 18.7373 86.0404 18.7147 86.0308 18.6921C86.0679 18.7752 86.105 18.8583 86.1413 18.9406C86.1679 19.0019 86.1945 19.0648 86.2204 19.1261L86.2196 19.127Z" fill="#9695A1"/>
  <path d="M46.6476 24.457C45.8214 12.9117 55.3513 4.23699 67.5582 4.23699C67.7648 4.23699 67.9705 4.23941 68.1787 4.24506C77.0769 4.45967 82.4364 11.2529 85.5047 17.567C85.1368 17.5775 84.7713 17.6008 84.4106 17.6363C81.0326 12.706 76.0692 8.4977 68.933 8.32747C68.7176 8.32263 68.5014 8.32022 68.2876 8.32022C57.3433 8.32022 48.4564 14.9634 46.6476 24.457Z" fill="#8F8FA8"/>
  <path d="M85.5297 19.3887C85.1779 18.7981 84.8044 18.2124 84.4106 17.6363C84.7713 17.6008 85.1368 17.5774 85.5047 17.5669C85.6878 17.9445 85.8629 18.3197 86.0307 18.6924C86.0404 18.715 86.0509 18.7376 86.0605 18.761C86.1154 18.8812 86.1679 19.0038 86.2195 19.1273C85.9888 19.2128 85.7588 19.2999 85.5297 19.3887Z" fill="#8282A6"/>
  <path d="M87.6387 25.1109C84.5559 18.6614 81.557 11.1468 75.0373 7.58078C71.9158 5.79211 68.3295 5.45567 64.7715 5.8623C57.6895 6.57471 50.8002 11.1622 48.717 18.1345C46.6153 24.9972 49.2947 32.924 54.0395 38.102C56.4881 40.7709 59.5887 42.8387 62.9482 44.2845C63.6541 44.5814 63.9833 45.3979 63.6799 46.1015C63.379 46.8018 62.5674 47.1253 61.8671 46.8235C58.1864 45.2414 54.7575 42.9646 52.0104 39.9738C50.6364 38.4837 49.4415 36.8265 48.4484 35.0564C45.5826 29.7016 44.2119 23.2448 46.0796 17.3197C48.7687 8.20848 58.2881 2.6803 67.4655 2.77551C75.1131 2.58107 81.2206 7.28308 84.9552 13.6439C87.0328 17.0583 88.4955 20.8091 88.965 24.7293C89.0498 25.5119 87.9751 25.8169 87.6387 25.1109Z" fill="#000072"/>
  <path d="M114.938 137.053C114.938 137.053 158.738 142.884 173.06 119.833C180.571 107.746 178.742 91.8929 178.743 91.8751C178.701 91.1571 187.681 50.0877 152.662 27.574C142.788 21.2261 133.037 18.4862 123.253 16.9323C113.436 15.6091 103.309 15.4308 92.0277 18.6734C52.0153 30.1735 48.8139 72.0916 48.567 72.7669C48.563 72.7846 42.2554 87.4434 45.9756 101.179C53.069 127.373 96.6975 134.376 96.6975 134.376L114.938 137.053Z" fill="white"/>
  <path d="M114.938 137.053C114.938 137.053 158.738 142.884 173.06 119.833C180.571 107.746 178.742 91.8929 178.743 91.8751C178.701 91.1571 187.681 50.0877 152.662 27.574C142.788 21.2261 133.037 18.4862 123.253 16.9323C113.436 15.6091 103.309 15.4308 92.0277 18.6734C52.0153 30.1735 48.8139 72.0916 48.567 72.7669C48.563 72.7846 42.2554 87.4434 45.9756 101.179C53.069 127.373 96.6975 134.376 96.6975 134.376L114.938 137.053Z" fill="white"/>
  <path d="M114.331 136.964L97.3203 134.467L114.331 136.964Z" fill="#3D3D7C"/>
  <path d="M114.331 136.964L97.3202 134.467C97.3694 134.145 97.2145 133.791 96.807 133.694C89.4861 131.577 82.1176 129.477 75.0936 126.52C63.9695 121.721 52.3572 114.55 47.994 102.7C46.5007 98.5131 46.0601 93.8595 46.3248 89.2413C46.5071 90.4298 46.7532 91.6206 47.0743 92.805C54.1685 119.001 97.7954 126.002 97.7954 126.002L116.035 128.679C116.035 128.679 120.98 129.338 128.088 129.338C142.14 129.338 164.646 126.768 174.157 111.462C174.996 110.112 175.719 108.716 176.341 107.299C175.361 111.937 173.678 116.443 171.083 120.151C168.223 124.352 164.125 127.522 159.606 129.875C147.923 135.759 134.708 136.404 121.775 136.404C119.515 136.404 117.261 136.384 115.029 136.369C115.022 136.369 115.016 136.369 115.009 136.369C114.616 136.369 114.376 136.652 114.331 136.964Z" fill="#CCCCE3"/>
  <path d="M115.029 136.369C130.039 136.469 145.882 136.787 159.606 129.875C164.125 127.522 168.224 124.352 171.084 120.151C176.626 112.233 178.009 100.668 177.256 91.9642C179.972 75.0593 177.291 56.6046 166.872 42.68C163.063 37.5399 158.274 33.113 152.956 29.5598C144.092 23.4314 133.639 19.9976 123.043 18.3663C114.537 17.194 105.81 17.0552 97.3849 18.8334C89.0217 20.5576 80.8964 23.8816 74.0345 29.0031C60.0454 39.3455 52.1049 56.2528 49.8765 73.2464C46.5783 81.6565 44.6565 93.343 47.9943 102.7C52.3574 114.55 63.9697 121.721 75.0939 126.52C82.1179 129.477 89.4864 131.576 96.8073 133.694C97.6286 133.89 97.4245 135.126 96.5886 135.057C84.8828 133.934 73.615 129.738 63.4606 123.888C55.8122 119.336 48.7809 112.89 45.5037 104.391C41.7448 94.1304 43.3681 82.5932 47.1366 72.584L47.2052 72.413C47.2004 72.4259 47.2012 72.4412 47.2076 72.4574L47.2577 72.2879C47.2399 72.3121 47.2286 72.3388 47.223 72.367C47.2214 72.3783 47.2205 72.3912 47.2238 72.3646L47.2512 72.1685L47.3069 71.7651C50.4889 48.5462 64.3804 26.7973 87.1329 18.7963C94.474 16.0725 102.313 14.6913 110.133 14.6042C125.693 14.5622 141.625 18.2848 154.6 27.1176C160.202 30.8515 165.229 35.4922 169.248 40.9115C179.897 55.2015 182.989 73.9403 180.335 91.2929L180.272 91.6947L180.242 91.8899C180.237 91.9174 180.24 91.9029 180.242 91.8891C180.246 91.8552 180.242 91.8206 180.231 91.7875L180.23 91.9763C180.242 91.9577 180.246 91.9375 180.246 91.919L180.261 92.1029L180.294 92.4821C180.938 103.445 178.915 115.621 171.608 124.208C160.842 136.477 141.965 139.126 126.479 139.056C122.563 138.959 118.68 138.629 114.846 137.737C114.039 137.527 114.217 136.35 115.029 136.369Z" fill="#000072"/>
  <path d="M87.9442 93.1817C91.9548 92.9389 101.479 90.4201 103.363 76.4616C105.212 62.763 100.567 57.5559 91.8895 56.0827C83.2123 54.6094 70.4423 57.3219 62.6672 64.2467C57.1277 69.1803 54.5992 78.4875 56.1127 82.7256C59.1044 91.1026 83.9328 93.4254 87.9442 93.1817Z" fill="#5F5F82"/>
  <path d="M134.366 99.9955C130.593 98.6103 122.195 93.4605 124.402 79.5496C126.568 65.8978 132.514 62.2454 141.249 63.3273C149.983 64.41 161.435 70.6781 166.892 79.5448C170.78 85.8628 170.527 95.5033 167.859 99.1282C162.587 106.293 138.138 101.382 134.366 99.9955Z" fill="#5F5F82"/>
  <path d="M151.949 84.8701C151.122 91.1914 145.883 95.5634 140.247 94.6356C134.612 93.7078 130.714 87.831 131.541 81.5098C132.369 75.1893 137.608 70.8165 143.243 71.7451C148.879 72.6721 152.776 78.5488 151.949 84.8701Z" fill="#000072"/>
  <path d="M135.769 85.7624C135.928 88.3256 137.607 90.2829 139.519 90.1336C141.431 89.9843 142.852 87.7858 142.693 85.2226C142.534 82.6594 140.856 80.7021 138.944 80.8514C137.032 81.0006 135.61 83.1992 135.769 85.7624Z" fill="white"/>
  <path d="M146.962 82.5835C145.954 82.5835 144.896 81.5815 144.456 80.1195C143.949 78.4374 144.45 76.7834 145.575 76.4244C145.722 76.3776 145.872 76.355 146.023 76.355C147.031 76.355 148.089 77.3571 148.529 78.819C149.035 80.5011 148.534 82.1551 147.41 82.5141C147.263 82.5609 147.113 82.5835 146.962 82.5835Z" fill="#5959A3"/>
  <path d="M76.5604 40.3199C75.9134 38.8879 83.206 28.0058 93.1845 33.0103C96.778 34.8135 96.59 38.5498 93.5452 38.9032C90.6439 39.2404 89.4765 38.4506 84.9269 39.334C82.3532 39.8342 77.2075 41.7528 76.5604 40.3199Z" fill="#5F5F82"/>
  <path d="M160.058 52.6523C161.091 51.4679 157.256 38.9423 146.257 40.8496C142.295 41.5362 141.396 45.1676 144.208 46.3859C146.888 47.5476 148.233 47.1289 152.333 49.2895C154.653 50.5126 159.024 53.8367 160.058 52.6523Z" fill="#5F5F82"/>
  <path d="M70.888 79.4199C71.2809 73.3689 75.8499 67.5971 81.9719 66.4885C88.9628 65.217 95.1138 69.1824 95.848 76.4202C96.0199 78.1258 95.8778 79.7991 95.4502 81.3788C95.297 81.9444 94.7144 82.2792 94.1489 82.1259C93.7414 82.0154 93.4542 81.683 93.3816 81.2933C92.5845 77.5812 91.7236 73.2318 88.06 71.5213C81.2603 68.7322 75.3375 73.4197 72.9179 79.8257C72.5137 80.9593 70.8235 80.6172 70.888 79.4199Z" fill="#000072"/>
  <path d="M100.343 96.4943C101.455 99.7675 106.974 100.338 108.816 97.4657C109.785 96.1804 110.112 94.3587 110.466 92.8056C111.101 92.9008 112.357 93.0823 112.993 93.1767C112.928 94.1642 112.782 95.4277 112.888 96.4104C113.051 99.6271 115.529 101.381 118.625 101.141C119.799 101.038 120.885 100.596 121.619 99.6174C121.843 99.2931 122.296 99.2172 122.611 99.4544C123.482 100.145 121.979 101.832 121.361 102.319C117.821 105.05 111.833 103.451 110.446 99.1059C109.862 97.4511 109.821 95.7681 110.183 94.0803L111.334 95.723L111.313 95.7198L112.888 94.4773C112.869 94.7492 112.848 94.9283 112.819 95.1445C112.176 99.5835 108.668 102.736 104.084 101.733C101.647 101.245 99.1364 99.3746 98.9823 96.7242C98.963 96.341 99.2575 96.015 99.6407 95.9949C99.9691 95.9779 100.255 96.1925 100.343 96.4943Z" fill="#000072"/>
  <path d="M119.869 89.8407C119.619 91.5301 117.196 92.696 115.024 93.4108C112.752 94.1587 110.382 93.8086 108.423 92.4362C106.551 91.1235 104.568 89.3058 104.818 87.6172C105.57 82.5222 120.621 84.7466 119.869 89.8407Z" fill="#000072"/>
  <path d="M112.849 89.2104C112.209 89.2104 111.569 89.0515 111.004 88.7457C110.245 88.3351 109.435 87.7752 109.507 87.2887C109.585 86.7578 110.415 86.5335 111.433 86.5335C113.23 86.5335 115.614 87.2322 115.475 88.1705C115.403 88.657 114.465 88.9587 113.621 89.1322C113.367 89.1846 113.108 89.2104 112.849 89.2104Z" fill="#8080B9"/>
  <path d="M117.52 102.395C121.636 102.013 121.28 97.5381 125.917 97.1517C128.431 96.9427 130.165 99.5043 128.973 101.954C127.677 104.615 123.496 105.408 121.193 104.751C118.75 104.053 117.52 102.395 117.52 102.395Z" fill="#FF8080"/>
  <path d="M117.52 102.395H117.524H117.52ZM119.941 102.896C120.375 103.159 120.904 103.413 121.525 103.59C123.401 104.126 126.899 103.453 127.887 101.426C128.264 100.65 128.23 99.8087 127.796 99.1753C127.398 98.5936 126.751 98.2935 126.017 98.3556C124.132 98.513 123.349 99.4601 122.359 100.66C121.732 101.418 121.01 102.293 119.941 102.896ZM122.935 106.177C122.181 106.177 121.471 106.086 120.861 105.912C118.057 105.112 116.61 103.196 116.55 103.115C116.29 102.764 116.239 102.301 116.417 101.902C116.595 101.505 116.974 101.233 117.408 101.192C118.901 101.054 119.57 100.244 120.496 99.1221C121.575 97.8159 122.918 96.1902 125.816 95.949C127.416 95.8142 128.9 96.5121 129.789 97.811C130.72 99.1697 130.82 100.916 130.058 102.482C128.809 105.05 125.598 106.177 122.935 106.177Z" fill="#000072"/>
  <path d="M148.585 27.7438C147.045 22.3124 158.582 24.0656 158.087 19.2006C157.727 15.6628 144.588 7.99739 133.49 16.4656C133.49 16.4656 133.607 13.7152 134.326 10.1604C135.186 5.90052 135.144 2.30378 133.371 1.5704C129.779 0.0834694 122.736 7.14299 109.282 13.1351C104.079 15.4522 94.2025 18.5882 89.6909 19.4636L119.978 45.5757L148.585 27.7438Z" fill="white"/>
  <path d="M147.921 27.9315C146.526 24.9004 149.556 23.0116 152.017 22.1669L153.265 21.7232C154.071 21.4311 154.859 21.1649 155.497 20.8236C155.984 20.5686 156.454 20.254 156.608 19.8167C156.63 19.7417 156.646 19.6634 156.649 19.5682C156.65 19.4851 156.635 19.3141 156.628 19.3181C156.304 18.5266 155.475 17.8215 154.685 17.2398C151.409 14.9541 147.23 13.923 143.266 14.207C140.016 14.4442 136.923 15.6625 134.288 17.5915C133.397 18.2862 132.014 17.5165 132.112 16.4064C132.245 13.677 132.747 11.1 133.232 8.44082C133.42 7.20481 133.541 5.95345 133.47 4.8078C133.41 4.07926 133.332 3.3975 132.954 2.92553C132.876 2.84323 132.82 2.83841 132.718 2.80372C131.895 2.60121 130.731 3.06755 129.865 3.45965C126.392 5.14183 123.139 7.39764 119.726 9.31702C117.425 10.6458 115.075 11.9125 112.673 13.0783C107.89 15.4374 102.808 17.1801 97.7242 18.7566C95.1489 19.5368 92.6163 20.2774 89.9539 20.818C88.1943 21.1261 87.6093 18.5323 89.4182 18.1103C90.651 17.8675 91.9136 17.5464 93.1666 17.2051C99.412 15.443 105.626 13.4446 111.467 10.595C116.196 8.32464 120.598 5.59848 125.118 2.88683C127.646 1.52414 131.221 -1.04794 134.231 0.458359C137.309 2.35837 136.124 7.94383 135.596 10.8548C135.242 12.7039 134.977 14.675 134.869 16.5233L132.654 15.368L132.655 15.3672C138.508 10.4917 147.276 9.80513 154.006 13.3163C156.639 14.7145 160.494 17.2414 159.331 20.7703C158.148 23.7547 154.274 24.1202 151.672 25.0391C150.296 25.5022 149.078 25.9968 149.249 27.5555C149.338 28.3397 148.252 28.6552 147.921 27.9315Z" fill="#000072"/>
  <path d="M126.109 100.849C125.432 103.46 123.081 105.518 120.287 105.186C119.9 105.157 119.531 105.068 119.147 105.004C118.58 104.91 118.197 104.373 118.291 103.806C118.386 103.239 118.922 102.856 119.489 102.95C119.574 102.963 119.705 103.008 119.787 103.035C120.799 103.458 121.96 103.654 122.989 103.176C124.062 102.719 124.943 101.688 125.453 100.635C125.608 100.232 126.226 100.435 126.109 100.849Z" fill="#000072"/>
</svg>
